<svg xmlns="http://www.w3.org/2000/svg" xmlns:xlink="http://www.w3.org/1999/xlink" width="190" height="27" viewBox="0 0 190 27"><defs><style>.a,.c{fill:#fff;}.a{stroke:#707070;}.b{clip-path:url(#a);}.d{clip-path:url(#b);}.e{clip-path:url(#c);}.f{clip-path:url(#d);}</style><clipPath id="a"><rect class="a" width="27" height="27"/></clipPath><clipPath id="b"><rect class="a" width="27" height="27" transform="translate(0.024)"/></clipPath><clipPath id="c"><rect class="a" width="27" height="27" transform="translate(0.047)"/></clipPath><clipPath id="d"><rect class="a" width="27" height="27" transform="translate(0.071)"/></clipPath></defs><g transform="translate(-170 -5999)"><g class="b" transform="translate(170 5999)"><path class="c" d="M26.806,13.4a13.4,13.4,0,1,0-15.5,13.239V17.278h-3.4V13.4h3.4V10.451c0-3.36,2-5.215,5.062-5.215a20.632,20.632,0,0,1,3,.261V8.8H17.682A1.938,1.938,0,0,0,15.5,10.889V13.4h3.717l-.594,3.875H15.5v9.365A13.406,13.406,0,0,0,26.807,13.4Z" transform="translate(0 0.081)"/></g><g class="d" transform="translate(223.976 5999)"><path class="c" d="M13.4,0c-3.641,0-4.1.016-5.526.08A9.893,9.893,0,0,0,4.624.7,6.559,6.559,0,0,0,2.25,2.25,6.553,6.553,0,0,0,.7,4.624,9.873,9.873,0,0,0,.08,7.878C.013,9.308,0,9.762,0,13.4s.016,4.1.08,5.526A9.9,9.9,0,0,0,.7,22.183,6.574,6.574,0,0,0,2.25,24.557,6.554,6.554,0,0,0,4.624,26.1a9.9,9.9,0,0,0,3.253.623c1.43.067,1.885.08,5.526.08s4.1-.016,5.526-.08a9.916,9.916,0,0,0,3.253-.623A6.85,6.85,0,0,0,26.1,22.183a9.9,9.9,0,0,0,.623-3.253c.067-1.43.08-1.884.08-5.526s-.016-4.1-.08-5.526A9.908,9.908,0,0,0,26.1,4.624,6.579,6.579,0,0,0,24.557,2.25,6.531,6.531,0,0,0,22.183.7,9.858,9.858,0,0,0,18.929.08C17.5.013,17.045,0,13.4,0Zm0,2.413c3.577,0,4,.018,5.417.079a7.39,7.39,0,0,1,2.487.463A4.412,4.412,0,0,1,23.852,5.5a7.39,7.39,0,0,1,.461,2.487c.064,1.414.078,1.839.078,5.417s-.016,4-.083,5.417a7.538,7.538,0,0,1-.47,2.487,4.256,4.256,0,0,1-1,1.544,4.182,4.182,0,0,1-1.541,1,7.446,7.446,0,0,1-2.5.461c-1.423.064-1.842.078-5.427.078s-4.005-.016-5.427-.083a7.605,7.605,0,0,1-2.5-.47,4.151,4.151,0,0,1-1.541-1A4.07,4.07,0,0,1,2.9,21.291a7.625,7.625,0,0,1-.469-2.5c-.051-1.407-.068-1.842-.068-5.411s.018-4.005.068-5.429A7.6,7.6,0,0,1,2.9,5.46,3.965,3.965,0,0,1,3.9,3.918a3.969,3.969,0,0,1,1.541-1,7.419,7.419,0,0,1,2.481-.47c1.424-.051,1.843-.067,5.427-.067l.051.034Zm0,4.108A6.883,6.883,0,1,0,20.286,13.4,6.883,6.883,0,0,0,13.4,6.521Zm0,11.35A4.468,4.468,0,1,1,17.871,13.4,4.467,4.467,0,0,1,13.4,17.871ZM22.167,6.25a1.61,1.61,0,0,1-3.217,0,1.608,1.608,0,1,1,3.217,0Z" transform="translate(0)"/></g><g class="e" transform="translate(278.953 5999)"><path class="c" d="M26.807,6.613a7.2,7.2,0,0,1-1,1.434A7.389,7.389,0,0,1,24,9.572q.03.239.045.448a16.266,16.266,0,0,1-1.15,6.231,16.408,16.408,0,0,1-6.53,8.114A17.169,17.169,0,0,1,6.142,26.232,11.736,11.736,0,0,1,0,23.857,11.444,11.444,0,0,0,8.189,21.5a5.641,5.641,0,0,1-5.2-3.855,3.5,3.5,0,0,0,1.165.06,10.842,10.842,0,0,0,1.315-.179,6.164,6.164,0,0,1-3.736-2.9,6.249,6.249,0,0,1-.628-2.749,5.25,5.25,0,0,0,2.48.747A6.408,6.408,0,0,1,1.15,8.66a7.333,7.333,0,0,1,.672-3.571A18.782,18.782,0,0,0,8.2,9.87a13.218,13.218,0,0,0,5.005,1.046,6.69,6.69,0,0,1,.672-4.244,5.781,5.781,0,0,1,3.451-2.51,5.094,5.094,0,0,1,5.11,1.584A9.1,9.1,0,0,0,26,4.431,5.4,5.4,0,0,1,23.549,7.6a15.539,15.539,0,0,0,3.257-.986Z" transform="translate(0 -1.765)"/></g><g class="f" transform="translate(332.929 5999)"><path class="c" d="M26.256,10.128a3.36,3.36,0,0,0-2.333-2.333c-2.089-.56-10.5-.56-10.5-.56s-8.388-.011-10.5.56A3.36,3.36,0,0,0,.592,10.128a34.914,34.914,0,0,0-.583,6.486,34.914,34.914,0,0,0,.583,6.462,3.36,3.36,0,0,0,2.333,2.333c2.087.561,10.5.561,10.5.561s8.387,0,10.5-.561a3.36,3.36,0,0,0,2.333-2.333,34.914,34.914,0,0,0,.559-6.462,34.914,34.914,0,0,0-.559-6.486ZM10.74,20.627V12.589l7,4.025Z" transform="translate(-0.009 -3.199)"/></g></g></svg>