<svg xmlns="http://www.w3.org/2000/svg" width="263.863" height="26.061" viewBox="0 0 263.863 26.061"><defs><style>.a{fill:#ff8f0c;}</style></defs><g transform="matrix(1, 0.017, -0.017, 1, 0.375, 0)"><path class="a" d="M3.976,21.411q49.332-7.559,99.173-10.751c33.156-2.126,66.4-2.873,99.627-2.476q28.2.337,56.365,1.96A4.343,4.343,0,0,0,263.525,5.9a4.414,4.414,0,0,0-4.385-4.245C225.618-.076,192.016-.507,158.466.638q-50.1,1.709-99.941,7.46C39.737,10.266,20.985,12.639,2.3,15.526A3.063,3.063,0,0,0,.1,19.28a3.244,3.244,0,0,0,3.877,2.131Z" transform="translate(0 0)"/></g></svg>