<svg xmlns="http://www.w3.org/2000/svg" xmlns:xlink="http://www.w3.org/1999/xlink" width="19" height="19" viewBox="0 0 19 19"><defs><style>.a,.c{fill:#fff;}.a{stroke:#707070;}.b{clip-path:url(#a);}</style><clipPath id="a"><rect class="a" width="19" height="19" transform="translate(1044 5956)"/></clipPath></defs><g class="b" transform="translate(-1044 -5956)"><path class="c" d="M9.509,7.125.01,2.319V1.188A1.133,1.133,0,0,1,.362.343,1.156,1.156,0,0,1,1.2,0H17.821a1.156,1.156,0,0,1,.835.343,1.133,1.133,0,0,1,.352.844V2.319ZM8.915,8.313H10.1l8.906-4.62v9.37a1.2,1.2,0,0,1-1.187,1.187H1.2A1.141,1.141,0,0,1,.363,13.9a1.141,1.141,0,0,1-.352-.835V3.692Z" transform="translate(1043.99 5958.375)"/></g></svg>