<svg xmlns="http://www.w3.org/2000/svg" xmlns:xlink="http://www.w3.org/1999/xlink" width="19" height="19" viewBox="0 0 19 19"><defs><style>.a,.c{fill:#fff;}.a{stroke:#707070;}.b{clip-path:url(#a);}</style><clipPath id="a"><rect class="a" width="19" height="19" transform="translate(1044 5998)"/></clipPath></defs><g class="b" transform="translate(-1044 -5998)"><path class="c" d="M5.714,5.343,4.081,6.957A9.029,9.029,0,0,0,5.844,9.934a21.18,21.18,0,0,0,3.2,3.2,8.962,8.962,0,0,0,3,1.763l1.614-1.614a1.251,1.251,0,0,1,.983-.232,8.185,8.185,0,0,1,1.419.222,6.117,6.117,0,0,1,1.178.4,3.659,3.659,0,0,1,1.521,1.234q.482.733.055,1.141l-1.984,1.985a3.253,3.253,0,0,1-2.17.919,7.63,7.63,0,0,1-2.968-.427,15.026,15.026,0,0,1-3.376-1.679,20.671,20.671,0,0,1-3.4-2.764,20.785,20.785,0,0,1-2.773-3.4A15.065,15.065,0,0,1,.454,7.291,7.574,7.574,0,0,1,.027,4.332,3.25,3.25,0,0,1,.946,2.17L2.931.185q.39-.39,1.02.083A6.752,6.752,0,0,1,5.306,1.763a4.583,4.583,0,0,1,.557,1.8,2.53,2.53,0,0,1-.148,1.781Z" transform="translate(1043.99 5998.012)"/></g></svg>